<?xml version="1.0" encoding="UTF-8"?>
<svg id="Layer_1" data-name="Layer 1" xmlns="http://www.w3.org/2000/svg" xmlns:xlink="http://www.w3.org/1999/xlink" version="1.1" viewBox="0 0 1920 1080">
  <defs>
    <style>
      .cls-1 {
        fill: url(#linear-gradient);
      }

      .cls-1, .cls-2, .cls-3 {
        stroke-width: 0px;
      }

      .cls-2 {
        fill: #0147a6;
      }

      .cls-3 {
        fill: #4f4ef7;
      }
    </style>
    <linearGradient id="linear-gradient" x1="3354.9" y1="-942.2" x2="3354.9" y2="1227.9" gradientTransform="translate(-2394.4 939.2)" gradientUnits="userSpaceOnUse">
      <stop offset="0" stop-color="#fff"/>
      <stop offset="0" stop-color="#f8fbfd"/>
      <stop offset=".6" stop-color="#7fceff"/>
    </linearGradient>
  </defs>
  <rect class="cls-1" x="4" y="-3" width="1912.9" height="2170.1" transform="translate(1920.9 2164.1) rotate(180)"/>
  <path class="cls-3" d="M-2,1596c27.7,15,59.8-42.1,74-46,14.2-3.9-10-44.5,17-39,27,5.5,140.6-12.2,137,19-3.6,31.2,20.8-37.8,62-37s100.8,10.1,100.8,43.3-6.9,78.5,13,79.2c19.9.7,88.1-30.6,143.1,3.8,55,34.4,67.5,108.3,114.4,109.3,46.8,1,96.2,86.8,170.1,65.3,74-21.5,91-10.6,120.4,17.2,29.4,27.9,86.3,52.1,164,9.8,77.7-42.3,153.6,74.4,153.6,74.4l195.5,979.7H-4l2-1279Z"/>
  <path class="cls-3" d="M1922.5,1426.4s-42.2-6.8-54.7,17c-12.5,23.8-30.6,29.3-41.9,65-11.3,35.8.9,43.7-29,49.4-29.9,5.7-31,52.1-37.8,71.3-6.8,19.3-13,16.4-13,16.4,0,0-.6-76.4-11.9-87.2-11.3-10.8-15.3,3.4-13.6,13.6,1.7,10.2,12.5,36.2,12.5,36.2,0,0-13.6-11.3-15.3-1.1,0,0-9.1-23.2-11.3-34.5-2.3-11.3-18.1-9.6-15.3,5.1,2.8,14.7,26.6,57.2,26.6,57.2,0,0-13.9-9.1-17-19-3.1-9.9-1.8-15.9-10-15.9s-9.3,12.5-2.8,20.7c6.5,8.2,20.1,18.1,20.1,18.1,0,0-18.7-6.2-22.1-11-3.4-4.8-23.2-.8-10.5,10.8,12.7,11.6,38.2,14.2,38.2,14.2,0,0-11.6-.6-17,10.8-5.4,11.3-19.6,6.9-30.9,9.9-11.3,3-21.1,7.5-21.1,4.9s1.1-10.6,10.2-11.7c9.1-1.1,9.8,3.8,16.6-5.7,6.8-9.4,9.4-15.1,9.4-15.1,0,0-13.2,7.5-20.4,1.9-7.2-5.7-9.4-14.3-21.5-14.3s-19.2,6.4-27.5-.4c-8.3-6.8-22.3-5.7-24.5-.8-2.3,4.9-18.9,6.4-24.2,3.4,0,0,1.9,6.4,25.7,12.1,23.8,5.7,36.2,12.8,37,21.5.8,8.7-3.4,13.6-15.1,15.1-11.7,1.5-23,10.9-27.2,18.9-4.2,7.9-25.3,10.6-25.3,10.6l1.9-18.1s9.8-13.6,6.8-21.5c-3-7.9-32.5-12.8-38.1-2.6-5.7,10.2,2.6,23.8,9.1,25.3,6.4,1.5,4.5,20.4,4.5,20.4,0,0-12.8-4.2-12.8-9.4s2.3-18.5-5.7-19.3c-7.9-.8-20.4,4.5-20.8,9.8-.4,5.3-1.5,11.7,6,13.6,7.5,1.9,21.9-1.9,22.6,10.6.8,12.5,1.9,19.6-1.5,18.5s-11.3-4.2-10.2,4.9c1.1,9.1,11.3,21.5,11.3,21.5,0,0-20.6-.6-22.8,17-2.3,17.6-4.5,27.2-18.7,29.4-14.2,2.3-28.3,1.7-28.3,0s3.4-12.5,9.6-16.4c6.2-4,16.4-8.5,16.4-8.5,0,0-24.3,3.4-26-3.4-1.7-6.8-10.2-2.3-12.5,0-2.3,2.3-7.4.6-11.9-1.7-4.5-2.3-14.7,0-19.2-2.8-4.5-2.8-12.5-5.7-12.5-5.7,0,0,9.1,11.3,24.9,17.6,15.8,6.2,18.1,20.5,14.7,22.4-3.4,1.9-32.8,4.9-56,0-23.2-4.9-27.2-8.3-36.2-.9-9.1,7.4-46.4,14.2-57.7,49.3-11.3,35.1-6.8,30.6-66.8,19.3-60-11.3-54.3-15.9-84.9,3.4-30.6,19.3-78.7,36.8-78.7,36.8,0,0,17.5-19.8,13.6-24.3-4-4.5-8.5-3.4-13.6,2.8-5.1,6.2-14.2,21.5-14.2,21.5,0,0,15.3-33.1,17.8-45.3,2.5-12.2-5.4-12.5-10.8-2.5-5.4,9.9-5.1,19-9.9,25.2,0,0-2.8-9.6-11-4.5,0,0,12.5-22.9,11-32.6-1.4-9.6-12.2-8.2-16.4,3.1-4.2,11.3-11.3,65.5-11.3,65.5,0,0-15.8-18.1-14.7-37s-18.5-25.3-18.5-4.5,23,44.5,23,44.5c0,0-17.4-10.6-23-16.6-5.7-6-11.3-11.7-12.8-3.8-1.5,7.9,15.1,26.4,15.1,26.4,0,0-4.5,12.1-32.5,7.7-27.9-4.3-31.7-10-52.1,0-20.4,10-1,27.6-35.2,29-34.2,1.4-86-5.2-91.1,11.3-5.1,16.5-29.9,57.8-29.9,57.8l19.8,987.2h1144l10.5-1607.6Z"/>
  <g>
    <path class="cls-2" d="M4,2465c53.3.7,64.3-40.9,61.9-29-2.3,11.9,2.9,77,18.7-15,1.5-8.7,18.5-51,19.7-45,1.2,6-1.6-11.1,0,0,1.6,11.1,32,3.1,32.4,13,.4,9.9-8.8,40-8.8,40,0,0,3.9,56,38.3,39,9.5-4.7-18.7-44-22.6-38-3.9,6-2.3-31.4,0-27,2.3,4.4,10.5-29.2,16.7-22,6.3,7.2,15.3-9.7,9.1,9.1,0,0,14.1,13.6,8.2,22.3-5.9,8.7,51.2,42.9,52.8,74.1,1.6,31.2,13.3,25.3,10.9,33.6-2.3,8.3.8,16.7,6.3,18.7,5.5,2,10.2,7.9,8.2,14.3-2,6.4-5.5,11.5,3.9,13.1,9.4,1.6,20.7.8,21.9,9.5,1.2,8.7,6.1,11.9,15.2,10.9,9.2-1,9.4,4.6,9.4,4.6,0,0,9-1,10.9,2.4,2,3.4,7.2,3.6,9.6-.8,2.3-4.4,5.9-8.3,7.6-2,1.8,6.4.1,14.7,4.3,15.5,4.1.8,18.2-3.6,24.3,0,6.1,3.6,5.5,8.3,10,10.5s21.1,7.9,21.3,16.3c.2,8.3,7.5,16.2,3.7,23-3.8,6.7,1.8,16.4,7.5,17.6,5.7,1.2,9.5,3.1,8.2,7.2-1.3,4-1.2,12.1,4.4,14.8,5.6,2.7,11.8,12.5,10,15.1-1.8,2.6,14.3-1.8,15.2,1.6,1,3.4,11.3-2,11.5,3.4,0,0,21.1,3.8,21.3,25.8,0,0,25.2,3.6,24.4,16.3,0,0,7.6,3.8,17,0,9.4-3.8,39.9-5.1,41,9.8,1.2,14.9,4.1,24.7,19.1,24.1,14.9-.6,22,.3,23.2,7.8,0,0,24.3,7.2,27.6,20.3,3.2,13.1,23.4-6,36.3,0,12.9,6,27-3.3,34.3-10.1,7.3-6.9,54.5-22.1,62.7-3,8.2,19.1,3.2,24.4,23.2,25.6,19.9,1.2,24.6,4.2,26.7,8.6,2.1,4.5,23.2-8,33.7-3,10.6,5.1,16.7,16.7,16.7,16.7,0,0,55.6-25.7,72-5.1,16.4,20.7,9.8,34.2,25.8,34.6,16,.4,29.7-13.1,51.6,1.6,21.9,14.7,42.2,20.3,49.6,12.7,7.4-7.6,14.1-19.5,20.3-15.1,6.3,4.4,20.3,2.4,24.6-4.4,4.3-6.8,9.8-.4,15.6-.4s5.5-23.1,15.2-11.5c9.8,11.5,5.9,27.4,13.7,29.4,7.8,2,15.2-.8,16,5.3.8,6.2,12.5,11.9,18.4,8.4,5.9-3.6,9-9.7,12.7-5.4,3.7,4.4,11.7,7.9,17.2,7.4,5.5-.6,25.6,19.7,27.9,29,2.3,9.3,11.1-8.7,18.8-16.2,7.6-7.5,10.8-13.7,13.8-4.2,2.9,9.5-1.5,13.7,8.8,17.3,10.3,3.6,14.1.4,16.4,5.7,2.3,5.3,3.5,8.9,9.4,6.5,5.9-2.4-3.8-19.1,5.3-13.7,9.1,5.4,5.3,14,10.6,11.9,5.3-2.1,11.7-2.1,14.9-11.3,3.2-9.2,11.7-33.1,20.8-35.2,9.1-2.1,16.7-10.1,20.8.3,4.1,10.4,7.6,18.5,14.7,14,7-4.5,8.2-17,20.5-14,12.3,3,19.3,8.3,22-3,2.6-11.3-1.2-16.7,13.2-14.3,14.4,2.4,9.4-2.1,22.6-5.7,13.2-3.6,11.1,2.1,20.5.9,9.4-1.2,7.6-23.3,24.6-11.6,17,11.6,21.4,23.5,28.1,21.2,6.7-2.4,14,5.7,14.8,9,.8,3.4,8,3.4,10.2,1,2.1-2.4,1.2-16.5,7.6-8.9,6.4,7.6-1.4,9.1,5.7,9.9,7,.8,16.2-5.2,18.6-5.8,2.3-.6,5.5,2.8,6.1,5.4.6,2.6,3.5,3.8,9.2.2,5.7-3.6,7.8-9.5,13.5-6.8,5.7,2.8,2.3,7,10.2,8.9,7.8,2,16.8,1.4,16.8,1.4,0,0,19.3-1.6,22.1-9.1,2.7-7.6-2.7-8.9,6.1-9.7,8.8-.8,13.3.6,18.6-4.8,5.3-5.4,10.2-6.4,14.1-4.8,3.9,1.6,5.9,1.8,7.2,7,1.4,5.2,19.7,4.1,23.5-1,3.8-5.1,5-4.2,10.8-3.9,5.9.3,16.1,6.3,17-.6.9-6.9-2.1-4.8,3.5-13.7,5.6-8.9,9.4-11.9,14.7-13.4,5.3-1.5,10.3-1.2,10.3-1.2,0,0,22-31.3,48.4-31.3,0,0-7.9-23,17.9-25.6,0,0-5-14.9,11.4-19.7,16.4-4.8,14.7,2.4,20.8-8.9,6.2-11.3,9.9-11.3,9.9-11.3l-20.9,1232.9H-4l8-1520Z"/>
    <g>
      <path class="cls-2" d="M597.1,2790.4c-.9,0-1.7-.7-1.7-1.6-.5-4.8-1.4-7.1-2.2-8.9-1.3-2.9-1.8-4.7.4-9.9,3.4-8.1,3.1-11.6.2-20.2-1.2-3.5-3.8-6.8-6.5-10.2-4-5-8.2-10.2-7.9-16.7.4-10.6,5.8-15.7,6-16,.7-.7,1.8-.6,2.5,0,.7.7.6,1.9,0,2.5-.2.2-4.6,4.5-4.9,13.5-.2,5.1,3.4,9.6,7.1,14.3,2.8,3.5,5.8,7.2,7.1,11.3,3.1,9.2,3.4,13.8-.4,22.7-1.7,4.1-1.4,4.8-.4,7.1.8,1.9,2,4.6,2.5,9.9,0,1-.6,1.9-1.6,2,0,0-.1,0-.2,0Z"/>
      <path class="cls-2" d="M593.6,2747.2c-.7,0-1.4-.4-1.6-1.1-.1-.3-2.6-7-1-15.7.8-4.4.2-8-.5-11.4-.5-2.7-1-5.6-.7-8.7.4-4.1,2.7-6.8,4.9-9.3,1.7-2,3.5-4.1,4.6-7,.3-.9,1.3-1.4,2.3-1.1.9.3,1.4,1.4,1.1,2.3-1.3,3.6-3.4,6-5.3,8.2-2.1,2.4-3.7,4.3-4,7.3-.2,2.6.2,5.1.7,7.7.7,3.6,1.4,7.7.5,12.8-1.5,7.8.8,13.7.8,13.7.4.9,0,2-1,2.3-.2,0-.4.1-.6.1Z"/>
      <path class="cls-2" d="M591.5,2711.1c-.3,0-.5,0-.8-.2-.9-.4-1.3-1.5-.8-2.4.9-2-.3-8.5-1-12.1l-.3-1.6c-.2-1,.5-1.9,1.4-2.1.9-.2,1.9.5,2,1.4l.3,1.5c1.1,6.2,2,11.5.7,14.3-.3.6-.9,1-1.6,1Z"/>
      <path class="cls-2" d="M593.1,2730.3c-.1,0-.2,0-.4,0-1-.2-1.6-1.2-1.4-2.1,2.1-10,7.6-18.3,15.5-23.4,7.7-5,16.2-16.9,18.6-26,.2-.9,1.2-1.5,2.1-1.3.9.3,1.5,1.2,1.2,2.2-2.6,10-11.6,22.6-20.1,28.1-7.1,4.6-12.1,12.1-14,21.1-.2.8-.9,1.4-1.7,1.4Z"/>
      <path class="cls-2" d="M610.1,2706.4c-1,0-1.7-.8-1.8-1.8,0-1,.8-1.8,1.7-1.8,7.8,0,14.7-4.5,20.7-13.3.6-.8,1.6-1,2.4-.5.8.6,1,1.7.4,2.5-6.5,9.6-14.7,14.7-23.6,14.8h0Z"/>
      <path class="cls-2" d="M596.2,2784c-.6,0-1.2-.3-1.5-.9-.5-.9-.2-2,.6-2.4,8.4-4.9,10-21.2,9.5-28.3-.6-8.4-.1-10.6,6.3-12.8,1.7-.6,1.9-1.4,2.3-4.2.3-2.5.8-6,3.2-10.1,1.7-2.9,4.8-6.8,8.3-11.4,6.6-8.6,15.6-20.4,21.4-32.2.4-.9,1.5-1.2,2.4-.8.9.4,1.2,1.5.8,2.4-5.9,12.1-15,24-21.7,32.8-3.5,4.5-6.4,8.4-8,11.1-2.1,3.5-2.5,6.4-2.8,8.7-.4,2.9-.8,5.9-4.6,7.2-4.1,1.4-4.4,1.5-3.9,9.1.5,6.7-.6,25.4-11.3,31.7-.3.2-.6.2-.9.2Z"/>
      <path class="cls-2" d="M616.1,2732.6c-.8,0-1.5-.6-1.7-1.4-.2-1,.4-1.9,1.3-2.2,0,0,8.5-2.1,13.8-6,5.2-3.8,13.7-15.3,16.9-21.3,3.5-6.5,15.5-20,25.1-29.8.7-.7,1.8-.7,2.5,0,.7.7.7,1.8,0,2.5-11.4,11.6-21.7,23.7-24.5,29-2.9,5.4-11.6,17.8-17.9,22.4-5.9,4.3-14.6,6.5-15,6.6-.1,0-.3,0-.4,0Z"/>
      <path class="cls-2" d="M647.9,2705.7c-.8,0-1.5-.5-1.7-1.3-.2-1,.3-1.9,1.3-2.2.1,0,10.3-2.8,13.6-4.3,1.2-.6,3.2-2.6,5.4-5,3.1-3.3,7.4-7.8,13.1-11.9.8-.6,1.9-.4,2.5.4.6.8.4,1.9-.4,2.5-5.4,3.9-9.4,8.1-12.6,11.5-2.7,2.9-4.6,4.9-6.5,5.8-3.6,1.6-13.7,4.4-14.1,4.5-.2,0-.3,0-.4,0Z"/>
      <path class="cls-2" d="M605.7,2767.5c-.3,0-.6,0-.9-.3-.8-.5-1.1-1.6-.6-2.5,5.7-9.4,13.9-15.9,27.4-21.5,6.2-2.6,9.5-6.2,13-10,3.1-3.3,6.2-6.8,11.4-9.3,4.7-2.2,8.1-5,11.5-7.7,3.9-3.1,8-6.4,13.8-8.7,4.6-1.8,9.6-5,14.5-8.1,6.1-3.9,11.9-7.6,16.3-8.1,1,0,1.8.6,1.9,1.6.1,1-.6,1.9-1.6,2-3.6.4-9,3.9-14.8,7.5-5,3.2-10.2,6.5-15.1,8.4-5.4,2.1-9,5-12.9,8.1-3.5,2.8-7.1,5.7-12.2,8.1-4.5,2.2-7.3,5.2-10.3,8.5-3.6,3.9-7.3,8-14.2,10.9-12.8,5.4-20.5,11.4-25.7,20.1-.3.5-.9.9-1.5.9Z"/>
      <path class="cls-2" d="M674.8,2714.8c-.2,0-.4,0-.6-.1-.9-.3-1.4-1.4-1.1-2.3,0-.3,2.2-6.3,6.4-9.2l2.1-1.5c3.9-2.7,9.8-6.8,15.9-12.4.7-.7,1.8-.6,2.5.1.6.7.6,1.9-.1,2.5-6.3,5.7-12.3,9.9-16.2,12.7l-2.1,1.5c-3.2,2.3-5.1,7.4-5.1,7.5-.3.7-.9,1.2-1.7,1.2Z"/>
      <path class="cls-2" d="M652.1,2732.7c-1,0-2,0-3,0-1,0-1.7-.9-1.7-1.9,0-1,.9-1.7,1.8-1.7,14.3.8,28.1-4.4,38.5-8.9,5.6-2.4,10.6-5.4,15-7.9,5.2-3,9.7-5.7,13.5-6.5,2.4-.5,5.2-1.5,8.5-2.6,5.3-1.8,11.9-4.1,20-5.4,1-.1,1.9.5,2,1.5.1,1-.5,1.9-1.5,2-7.7,1.2-14.2,3.4-19.4,5.2-3.4,1.2-6.2,2.2-8.9,2.7-3.3.7-7.5,3.2-12.5,6.1-4.5,2.6-9.5,5.6-15.3,8.1-10,4.4-23.1,9.3-37.1,9.3Z"/>
      <path class="cls-2" d="M715.5,2710.1c-.8,0-1.5-.5-1.7-1.3-.3-1,.3-1.9,1.2-2.2,1.1-.3,3.2-2.1,5.4-4,5-4.3,11.9-10.3,20.1-11.1.9,0,1.8.6,1.9,1.6,0,1-.6,1.9-1.6,2-7.2.7-13.5,6.3-18.2,10.3-2.8,2.4-4.9,4.2-6.7,4.7-.2,0-.3,0-.5,0Z"/>
      <path class="cls-2" d="M632.2,2768.9c0,0-.1,0-.2,0-1,0-1.7-1-1.6-2,.8-8.5,7.4-16.4,14.1-23.9,5.5-6.2,19.1-8.5,32.3-10.8,3.3-.6,6.5-1.1,9.5-1.7,10.9-2.2,15.4-6.3,21-11.5,1.8-1.7,3.8-3.5,6-5.3.8-.6,1.9-.5,2.5.3.6.8.5,1.9-.3,2.5-2.2,1.8-4.1,3.5-5.8,5.1-5.8,5.4-10.8,10-22.7,12.3-3.1.6-6.3,1.2-9.6,1.7-12,2.1-25.5,4.4-30.3,9.6-6.3,7-12.5,14.4-13.2,21.8,0,.9-.9,1.6-1.7,1.6Z"/>
      <path class="cls-2" d="M700,2729.2c-.8,0-1.5-.6-1.7-1.4-.2-1,.4-1.9,1.3-2.1.2,0,16.7-3.8,23.2-9,.8-.6,1.9-.5,2.5.3s.5,1.9-.3,2.5c-7.1,5.8-23.9,9.5-24.6,9.7-.1,0-.3,0-.4,0Z"/>
      <path class="cls-2" d="M612.6,2795.7c-.2,0-.4,0-.5,0-.9-.3-1.4-1.3-1.1-2.3,3.4-10.5,9.3-16.5,14.5-21.8,1.5-1.6,3-3.1,4.4-4.7,6.8-7.9,23.6-12,36.9-13.3,8.1-.8,11-2.5,15.3-5.2,3.2-2,7.2-4.4,14.3-7.2,16.6-6.5,24.2-9.4,42.4-22.6.8-.6,1.9-.4,2.5.4.6.8.4,1.9-.4,2.5-18.6,13.5-26.3,16.5-43.2,23.1-6.8,2.7-10.7,5-13.8,6.9-4.6,2.8-7.9,4.9-16.8,5.7-15.9,1.5-29.5,6.3-34.6,12.1-1.4,1.6-3,3.2-4.6,4.8-5.2,5.3-10.6,10.7-13.7,20.4-.2.8-.9,1.2-1.7,1.2Z"/>
      <path class="cls-2" d="M674.8,2755.8c-.9,0-1.7-.7-1.8-1.7,0-.3-.3-6.9,4-12,2.4-2.8,7.7-5.1,13.4-7.5,4-1.7,8.1-3.4,10.1-5.1.8-.6,1.9-.5,2.5.3.6.8.5,1.9-.3,2.5-2.4,2-6.5,3.7-10.9,5.6-4.8,2-10.2,4.3-12.1,6.5-3.4,3.9-3.1,9.4-3.1,9.4,0,1-.7,1.8-1.7,1.9h0Z"/>
      <path class="cls-2" d="M683.5,2763.6c-.7,0-1.4,0-2.1,0-3.3-.3-7.3-1.4-11.2-2.5-5.1-1.5-10.5-3-13.6-2.3-1,.2-1.9-.4-2.1-1.3-.2-1,.4-1.9,1.3-2.1,4-.9,9.5.6,15.3,2.3,3.7,1.1,7.5,2.2,10.5,2.4,7.2.6,12.5-2.2,19.1-6.1,2.2-1.3,4.6-2.5,6.9-3.7,4.9-2.5,9.5-4.9,12.5-8.1,2.1-2.3,4.8-3.7,7.7-5.2,3.9-2,8.2-4.4,12.6-9.5.6-.7,1.7-.8,2.5-.2.7.6.8,1.8.2,2.5-4.8,5.6-9.7,8.2-13.6,10.3-2.7,1.4-5,2.6-6.7,4.5-3.4,3.6-8.3,6.1-13.4,8.8-2.2,1.2-4.5,2.3-6.7,3.6-6.3,3.8-11.9,6.7-19,6.7Z"/>
      <path class="cls-2" d="M724.4,2753.3c-4.6,0-10.1-2.9-10.8-3.3-.9-.5-1.2-1.5-.7-2.4.5-.9,1.5-1.2,2.4-.7,2.7,1.5,8,3.5,10.6,2.7,1.4-.4,2.8-1.3,4.3-2.1,3.1-1.8,6.6-3.8,11.4-4,1,0,1.8.7,1.8,1.7,0,1-.7,1.8-1.7,1.9-3.9.1-6.9,1.9-9.8,3.5-1.7,1-3.3,1.9-5,2.4-.8.3-1.7.4-2.5.4Z"/>
      <path class="cls-2" d="M622.4,2786c-1.9,0-3.6,0-5.2-.2-1,0-1.7-1-1.6-2,0-1,.9-1.7,1.9-1.6,9.8,1,25.1-1.1,34.2-6.7,2.4-1.5,3.9-2.8,5.3-3.9,4.4-3.6,6.7-5.1,19.5-3.7,15.9,1.7,28.3-.7,33.4-3.8.8-.5,1.9-.2,2.4.6.5.9.2,1.9-.6,2.4-5.3,3.1-17.8,6.1-35.6,4.3-11.8-1.2-13.2-.1-16.9,2.9-1.4,1.1-3.1,2.6-5.7,4.2-8.2,5.1-21.1,7.5-31.1,7.5Z"/>
      <path class="cls-2" d="M632.2,2807.7c-.4,0-.8-.1-1.1-.4-.8-.6-.9-1.8-.2-2.5,6-7.5,14.7-13.3,26.5-17.9,3.7-1.4,5.5-2.6,7.1-3.6,2.9-1.9,4.9-3.2,14.3-4.2,5.9-.7,10-.5,13.6-.3,5.1.2,8.8.3,14.6-2.1,4.1-1.7,7-3.5,9.7-5.1,4-2.5,7.2-4.4,11.5-4.1,1,0,1.7.9,1.6,1.9,0,1-.9,1.8-1.9,1.7-3.2-.2-5.7,1.3-9.5,3.6-2.6,1.6-5.8,3.6-10.1,5.4-6.5,2.8-10.8,2.6-16.1,2.4-3.5-.1-7.5-.3-13.1.3-8.5.9-10.2,2-12.8,3.7-1.6,1.1-3.7,2.4-7.7,3.9-11.2,4.3-19.4,9.8-25.1,16.8-.3.4-.9.7-1.4.7Z"/>
      <path class="cls-2" d="M686.3,2787.1c-2.5,0-5-1.1-7.2-2-2.3-1-4.4-1.9-6-1.5-1,.2-1.9-.4-2.1-1.4s.4-1.9,1.3-2.1c2.7-.6,5.5.6,8.1,1.7,2.6,1.1,5.1,2.2,7.2,1.5,2.5-.8,6.4-.9,11.3-1,5.7-.2,12.8-.4,19.9-1.8,9.5-1.9,10.9-2.8,14.5-5.3,1.2-.8,2.7-1.8,4.7-3.1.8-.5,1.9-.2,2.4.6.5.8.2,1.9-.6,2.4-2,1.2-3.4,2.1-4.5,3-3.8,2.6-5.5,3.8-15.8,5.8-7.4,1.5-14.6,1.7-20.4,1.8-4.4.1-8.3.2-10.4.9-.8.2-1.6.4-2.4.4Z"/>
      <path class="cls-2" d="M638.7,2801.2c-.7,0-1.3-.4-1.6-1.1-.4-.9,0-2,.9-2.4,1.7-.7,3.1-1.4,4.3-2,7.9-3.6,9.1-4,18.7-2.2,3.6.7,6.2,1.4,8.6,2.1,4.7,1.4,7.8,2.3,15,.9,4.8-.9,8.9-2.6,12.9-4.1,5.2-2,10-3.9,15.6-4.1.9-.1,1.8.8,1.8,1.8,0,1-.8,1.8-1.7,1.8-4.9.1-9.5,1.9-14.4,3.8-4.1,1.6-8.4,3.3-13.5,4.3-8,1.6-11.6.5-16.7-1-2.2-.7-4.8-1.4-8.2-2-8.9-1.6-9.3-1.4-16.7,2-1.3.6-2.7,1.2-4.4,2-.2.1-.5.1-.7.1Z"/>
    </g>
  </g>
</svg>